<svg width="374" height="263" viewBox="0 0 374 263" fill="none" xmlns="http://www.w3.org/2000/svg">
<g clip-path="url(#clip0_244_149)">
<path d="M194.881 147.111H169.049V147.945H173.078V155.862H173.911V147.945H189.602V155.862H190.435V147.945H194.881V147.111Z" fill="#3F3D56"/>
<path d="M204.463 126.691H197.797V133.358H200.887V155.826H201.721V133.358H204.463V126.691Z" fill="#3F3D56"/>
<path d="M194.931 144.617H169.1V145.451H194.931V144.617Z" fill="#3F3D56"/>
<path d="M194.931 142.534H169.1V143.367H194.931V142.534Z" fill="#3F3D56"/>
<path d="M194.931 140.45H169.1V141.283H194.931V140.45Z" fill="#3F3D56"/>
<path d="M261.126 158.265H260.293C260.293 118.741 228.145 86.5861 188.631 86.5861C149.117 86.5861 116.97 118.741 116.97 158.265H116.136C116.136 118.281 148.657 85.7526 188.631 85.7526C228.605 85.7526 261.126 118.281 261.126 158.265Z" fill="#3F3D56"/>
<path d="M68.1201 136.272C105.742 136.272 136.24 105.767 136.24 68.1362C136.24 30.5056 105.742 0 68.1201 0C30.4984 0 0 30.5056 0 68.1362C0 105.767 30.4984 136.272 68.1201 136.272Z" fill="#355C7D"/>
<path opacity="0.2" d="M118.792 22.6266C125.146 37.4934 126.008 54.1357 121.224 69.5797C116.44 85.0237 106.321 98.263 92.6764 106.932C79.0316 115.6 62.7496 119.134 46.7401 116.9C30.7305 114.667 16.0365 106.812 5.28381 94.7399C9.16536 103.823 14.9748 111.953 22.3096 118.568C29.6444 125.182 38.3293 130.122 47.7624 133.046C57.1956 135.97 67.1514 136.807 76.9403 135.5C86.7291 134.193 96.1169 130.773 104.453 125.477C112.789 120.181 119.875 113.136 125.218 104.829C130.562 96.5215 134.036 87.1518 135.4 77.3685C136.764 67.5851 135.985 57.6222 133.118 48.1698C130.25 38.7175 125.362 30.0018 118.792 22.6266Z" fill="black"/>
<path d="M68.3072 68.1363H68.4942L71.8628 261.314H64.7516L68.3072 68.1363Z" fill="#3F3D56"/>
<path d="M80.7108 173.359L79.1415 170.377L67.881 176.307L69.4503 179.289L80.7108 173.359Z" fill="#3F3D56"/>
<path d="M318.866 152.191C349.315 152.191 374 127.501 374 97.0434C374 66.5863 349.315 41.8959 318.866 41.8959C288.416 41.8959 263.731 66.5863 263.731 97.0434C263.731 127.501 288.416 152.191 318.866 152.191Z" fill="#355C7D"/>
<path opacity="0.2" d="M359.878 60.2092C365.021 72.242 365.718 85.7119 361.846 98.2118C357.974 110.712 349.784 121.427 338.741 128.443C327.697 135.46 314.519 138.319 301.561 136.512C288.603 134.704 276.711 128.347 268.008 118.576C271.149 125.927 275.851 132.508 281.788 137.861C287.724 143.215 294.754 147.213 302.389 149.579C310.024 151.946 318.082 152.624 326.004 151.566C333.927 150.508 341.525 147.74 348.272 143.454C355.02 139.167 360.754 133.465 365.079 126.741C369.404 120.018 372.216 112.434 373.32 104.516C374.424 96.5974 373.794 88.5337 371.473 80.8832C369.151 73.2328 365.195 66.1785 359.878 60.2092Z" fill="black"/>
<path d="M319.017 97.0433H319.168L321.895 253.395H316.139L319.017 97.0433Z" fill="#3F3D56"/>
<path d="M329.056 182.208L327.786 179.794L318.672 184.594L319.942 187.007L329.056 182.208Z" fill="#3F3D56"/>
<path d="M156.169 144.532C160.962 144.532 164.848 140.645 164.848 135.85C164.848 131.056 160.962 127.169 156.169 127.169C151.375 127.169 147.489 131.056 147.489 135.85C147.489 140.645 151.375 144.532 156.169 144.532Z" fill="#355C7D"/>
<path opacity="0.2" d="M162.625 130.052C163.435 131.946 163.545 134.066 162.935 136.034C162.326 138.002 161.036 139.689 159.298 140.793C157.559 141.898 155.485 142.348 153.445 142.063C151.405 141.779 149.533 140.778 148.163 139.24C148.657 140.397 149.397 141.433 150.332 142.276C151.267 143.119 152.373 143.748 153.575 144.121C154.777 144.493 156.046 144.6 157.293 144.433C158.54 144.267 159.736 143.831 160.798 143.156C161.86 142.481 162.763 141.584 163.444 140.525C164.125 139.467 164.568 138.273 164.741 137.026C164.915 135.78 164.816 134.511 164.451 133.306C164.085 132.102 163.462 130.991 162.625 130.052Z" fill="black"/>
<path d="M156.193 135.85H156.217L156.646 160.464H155.74L156.193 135.85Z" fill="#3F3D56"/>
<path d="M157.773 149.257L157.573 148.877L156.138 149.633L156.338 150.013L157.773 149.257Z" fill="#3F3D56"/>
<path d="M236.372 130.095C248.643 130.095 258.592 120.144 258.592 107.869C258.592 95.5946 248.643 85.644 236.372 85.644C224.1 85.644 214.151 95.5946 214.151 107.869C214.151 120.144 224.1 130.095 236.372 130.095Z" fill="#355C7D"/>
<path opacity="0.2" d="M252.9 93.0246C254.973 97.874 255.254 103.303 253.693 108.34C252.133 113.378 248.832 117.696 244.381 120.524C239.931 123.352 234.62 124.504 229.397 123.776C224.175 123.047 219.382 120.485 215.875 116.547C217.141 119.51 219.036 122.162 221.428 124.32C223.821 126.477 226.654 128.089 229.731 129.042C232.808 129.996 236.055 130.269 239.248 129.843C242.441 129.417 245.504 128.301 248.223 126.574C250.942 124.846 253.253 122.548 254.996 119.838C256.739 117.128 257.873 114.072 258.318 110.881C258.762 107.69 258.508 104.44 257.573 101.357C256.637 98.2733 255.043 95.4303 252.9 93.0246Z" fill="black"/>
<path d="M236.433 107.869H236.493L237.592 170.882H235.272L236.433 107.869Z" fill="#3F3D56"/>
<path d="M240.478 142.192L239.967 141.219L236.293 143.154L236.805 144.126L240.478 142.192Z" fill="#3F3D56"/>
<path d="M83.3911 251.697C83.3911 251.697 83.6788 245.667 89.577 246.368L83.3911 251.697Z" fill="#3F3D56"/>
<path d="M81.7244 245.959C83.3548 245.959 84.6764 244.637 84.6764 243.006C84.6764 241.375 83.3548 240.053 81.7244 240.053C80.0941 240.053 78.7725 241.375 78.7725 243.006C78.7725 244.637 80.0941 245.959 81.7244 245.959Z" fill="#355C7D"/>
<path d="M82.0774 247.978H81.2441V253.812H82.0774V247.978Z" fill="#3F3D56"/>
<path d="M104.223 237.945C104.223 237.945 104.511 231.915 110.409 232.615L104.223 237.945Z" fill="#3F3D56"/>
<path d="M102.556 232.206C104.187 232.206 105.508 230.884 105.508 229.254C105.508 227.623 104.187 226.301 102.556 226.301C100.926 226.301 99.6044 227.623 99.6044 229.254C99.6044 230.884 100.926 232.206 102.556 232.206Z" fill="#355C7D"/>
<path d="M102.909 234.226H102.076V240.06H102.909V234.226Z" fill="#3F3D56"/>
<path d="M167.018 191.289C167.018 191.289 167.247 186.499 171.931 187.056L167.018 191.289Z" fill="#3F3D56"/>
<path d="M165.694 186.731C166.989 186.731 168.039 185.681 168.039 184.386C168.039 183.091 166.989 182.041 165.694 182.041C164.4 182.041 163.35 183.091 163.35 184.386C163.35 185.681 164.4 186.731 165.694 186.731Z" fill="#355C7D"/>
<path d="M165.975 188.335H165.313V192.969H165.975V188.335Z" fill="#3F3D56"/>
<path d="M258.678 176.286C258.678 176.286 258.907 171.497 263.591 172.054L258.678 176.286Z" fill="#3F3D56"/>
<path d="M257.354 171.729C258.649 171.729 259.699 170.679 259.699 169.384C259.699 168.088 258.649 167.038 257.354 167.038C256.06 167.038 255.01 168.088 255.01 169.384C255.01 170.679 256.06 171.729 257.354 171.729Z" fill="#355C7D"/>
<path d="M257.635 173.333H256.973V177.967H257.635V173.333Z" fill="#3F3D56"/>
<path d="M171.184 203.791C171.184 203.791 171.413 199.002 176.098 199.558L171.184 203.791Z" fill="#3F3D56"/>
<path d="M169.861 199.233C171.156 199.233 172.205 198.183 172.205 196.888C172.205 195.593 171.156 194.543 169.861 194.543C168.566 194.543 167.516 195.593 167.516 196.888C167.516 198.183 168.566 199.233 169.861 199.233Z" fill="#355C7D"/>
<path d="M170.141 200.837H169.479V205.471H170.141V200.837Z" fill="#3F3D56"/>
<path d="M161.185 212.959C161.185 212.959 161.414 208.17 166.098 208.726L161.185 212.959Z" fill="#3F3D56"/>
<path d="M159.861 208.401C161.156 208.401 162.206 207.351 162.206 206.056C162.206 204.761 161.156 203.711 159.861 203.711C158.567 203.711 157.517 204.761 157.517 206.056C157.517 207.351 158.567 208.401 159.861 208.401Z" fill="#355C7D"/>
<path d="M160.142 210.005H159.48V214.639H160.142V210.005Z" fill="#3F3D56"/>
<path d="M272.844 184.204C272.844 184.204 273.072 179.415 277.757 179.972L272.844 184.204Z" fill="#3F3D56"/>
<path d="M271.52 179.647C272.815 179.647 273.865 178.597 273.865 177.302C273.865 176.006 272.815 174.956 271.52 174.956C270.225 174.956 269.176 176.006 269.176 177.302C269.176 178.597 270.225 179.647 271.52 179.647Z" fill="#355C7D"/>
<path d="M271.8 181.251H271.139V185.884H271.8V181.251Z" fill="#3F3D56"/>
<path d="M137.854 194.623C137.854 194.623 138.082 189.833 142.767 190.39L137.854 194.623Z" fill="#3F3D56"/>
<path d="M136.53 190.065C137.825 190.065 138.874 189.015 138.874 187.72C138.874 186.425 137.825 185.375 136.53 185.375C135.235 185.375 134.185 186.425 134.185 187.72C134.185 189.015 135.235 190.065 136.53 190.065Z" fill="#355C7D"/>
<path d="M136.81 191.669H136.148V196.303H136.81V191.669Z" fill="#3F3D56"/>
<path d="M246.179 170.869C246.179 170.869 246.408 166.079 251.092 166.636L246.179 170.869Z" fill="#3F3D56"/>
<path d="M244.855 166.311C246.15 166.311 247.2 165.261 247.2 163.966C247.2 162.671 246.15 161.621 244.855 161.621C243.56 161.621 242.511 162.671 242.511 163.966C242.511 165.261 243.56 166.311 244.855 166.311Z" fill="#355C7D"/>
<path d="M245.136 167.915H244.474V172.549H245.136V167.915Z" fill="#3F3D56"/>
<path d="M47.1437 252.947C47.1437 252.947 47.4314 246.917 53.3295 247.618L47.1437 252.947Z" fill="#3F3D56"/>
<path d="M45.4771 247.209C47.1075 247.209 48.4291 245.887 48.4291 244.256C48.4291 242.625 47.1075 241.303 45.4771 241.303C43.8468 241.303 42.5251 242.625 42.5251 244.256C42.5251 245.887 43.8468 247.209 45.4771 247.209Z" fill="#355C7D"/>
<path d="M45.8301 249.228H44.9968V255.063H45.8301V249.228Z" fill="#3F3D56"/>
<path d="M334.206 251.28C334.206 251.28 334.494 245.25 340.392 245.951L334.206 251.28Z" fill="#3F3D56"/>
<path d="M332.54 245.542C334.17 245.542 335.492 244.22 335.492 242.589C335.492 240.958 334.17 239.636 332.54 239.636C330.91 239.636 329.588 240.958 329.588 242.589C329.588 244.22 330.91 245.542 332.54 245.542Z" fill="#355C7D"/>
<path d="M332.893 247.561H332.06V253.396H332.893V247.561Z" fill="#3F3D56"/>
<path d="M310.042 237.111C310.042 237.111 310.329 231.081 316.227 231.782L310.042 237.111Z" fill="#3F3D56"/>
<path d="M308.375 231.373C310.005 231.373 311.327 230.051 311.327 228.42C311.327 226.789 310.005 225.467 308.375 225.467C306.745 225.467 305.423 226.789 305.423 228.42C305.423 230.051 306.745 231.373 308.375 231.373Z" fill="#355C7D"/>
<path d="M308.728 233.392H307.895V239.227H308.728V233.392Z" fill="#3F3D56"/>
<path d="M306.708 258.365C306.708 258.365 306.996 252.335 312.894 253.036L306.708 258.365Z" fill="#3F3D56"/>
<path d="M305.042 252.626C306.672 252.626 307.994 251.304 307.994 249.674C307.994 248.043 306.672 246.721 305.042 246.721C303.411 246.721 302.09 248.043 302.09 249.674C302.09 251.304 303.411 252.626 305.042 252.626Z" fill="#355C7D"/>
<path d="M305.395 254.646H304.562V260.48H305.395V254.646Z" fill="#3F3D56"/>
<path d="M51.9398 262.865C51.9398 262.865 183.18 228.276 181.93 192.854C179.639 183.06 163.807 180.56 163.807 180.56C163.807 180.56 126.309 175.559 146.725 163.474C167.14 151.388 222.969 154.306 222.969 154.306C222.969 154.306 165.473 163.474 190.888 168.475C211.303 169.725 237.551 175.142 237.551 175.142C237.551 175.142 290.881 186.394 298.38 213.899C305.88 241.403 299.63 262.657 299.63 262.657L51.9398 262.865Z" fill="#F8B195"/>
<path d="M194.883 263L194.392 262.313C195.086 261.816 195.77 261.323 196.444 260.832L196.941 261.515C196.265 262.007 195.579 262.502 194.883 263Z" fill="white"/>
<path d="M201.009 258.493L200.5 257.82C201.864 256.786 203.207 255.747 204.493 254.73L205.017 255.392C203.727 256.413 202.378 257.456 201.009 258.493ZM208.956 252.201L208.417 251.551C209.737 250.454 211.029 249.351 212.255 248.274L212.812 248.908C211.58 249.99 210.283 251.099 208.956 252.201ZM216.569 245.5L215.991 244.883C217.251 243.701 218.466 242.518 219.603 241.365L220.204 241.958C219.06 243.118 217.837 244.31 216.569 245.5ZM223.686 238.261L223.058 237.697C224.216 236.407 225.311 235.115 226.313 233.857L226.973 234.384C225.961 235.654 224.855 236.959 223.686 238.261ZM229.999 230.294L229.302 229.818C230.283 228.379 231.169 226.943 231.934 225.549L232.674 225.956C231.896 227.373 230.996 228.833 229.999 230.294ZM234.854 221.336L234.069 221.027C234.681 219.482 235.16 217.887 235.502 216.26L236.329 216.43C235.978 218.104 235.485 219.745 234.854 221.336V221.336ZM235.982 211.329C235.957 209.688 235.728 208.056 235.303 206.47L236.118 206.25C236.562 207.903 236.8 209.604 236.826 211.315L235.982 211.329ZM233.455 201.911C232.654 200.463 231.712 199.096 230.645 197.83L231.293 197.288C232.395 198.596 233.368 200.009 234.196 201.505L233.455 201.911ZM227.156 194.266C225.902 193.161 224.587 192.125 223.219 191.163L223.706 190.474C225.1 191.453 226.439 192.508 227.716 193.634L227.156 194.266ZM218.988 188.445C217.607 187.633 216.117 186.823 214.56 186.037L214.94 185.283C216.513 186.077 218.019 186.896 219.416 187.717L218.988 188.445ZM209.997 183.878C208.527 183.225 206.961 182.568 205.344 181.924L205.656 181.14C207.284 181.787 208.86 182.449 210.34 183.106L209.997 183.878ZM200.609 180.129C199.105 179.583 197.496 179.023 195.83 178.465L196.098 177.664C197.771 178.225 199.386 178.787 200.897 179.335L200.609 180.129ZM191.012 176.9C189.541 176.436 187.957 175.947 186.169 175.405L186.414 174.597C188.205 175.139 189.792 175.629 191.266 176.094L191.012 176.9ZM181.311 173.947C179.603 173.436 177.974 172.948 176.45 172.478L176.698 171.67C178.221 172.14 179.847 172.628 181.553 173.138L181.311 173.947ZM171.608 170.912C169.983 170.375 168.395 169.736 166.852 168.997L167.232 168.242C168.741 168.965 170.295 169.59 171.884 170.113L171.608 170.912ZM165.231 165.375L164.629 164.783C165.399 164.001 166.922 163.236 169.284 162.443L169.553 163.244C167.35 163.982 165.896 164.7 165.231 165.375L165.231 165.375ZM174.383 161.868L174.179 161.048C175.639 160.684 177.303 160.304 179.123 159.917L179.299 160.743C177.488 161.128 175.834 161.506 174.383 161.868V161.868ZM184.249 159.749L184.091 158.919C185.647 158.622 187.322 158.314 189.071 158.004L189.219 158.835C187.473 159.145 185.801 159.452 184.249 159.749V159.749ZM194.2 157.977L194.06 157.144C195.651 156.877 197.316 156.604 199.055 156.326L199.189 157.159C197.452 157.438 195.788 157.711 194.2 157.977Z" fill="white"/>
<path d="M204.28 156.358L204.151 155.523C204.972 155.396 205.807 155.268 206.657 155.138L206.784 155.973C205.934 156.102 205.1 156.231 204.28 156.358Z" fill="white"/>
<path d="M222.968 70.5715L226.803 67.5032C223.823 67.1744 222.599 68.7997 222.098 70.0862C219.77 69.1194 217.236 70.3865 217.236 70.3865L224.91 73.1731C224.523 72.1388 223.849 71.2363 222.968 70.5715Z" fill="#3F3D56"/>
<path d="M151.723 94.3254L155.558 91.2571C152.579 90.9282 151.354 92.5536 150.853 93.8401C148.526 92.8733 145.991 94.1404 145.991 94.1404L153.665 96.927C153.278 95.8927 152.604 94.9902 151.723 94.3254Z" fill="#3F3D56"/>
<path d="M170.471 45.1506L174.307 42.0823C171.327 41.7535 170.103 43.3789 169.602 44.6654C167.274 43.6986 164.74 44.9656 164.74 44.9656L172.414 47.7522C172.027 46.7179 171.353 45.8155 170.471 45.1506Z" fill="#3F3D56"/>
<path d="M212.166 181.768C212.166 181.768 208.844 181.768 208.475 183.799C208.106 185.83 207.552 207.982 207.921 210.751C208.29 213.52 208.29 212.966 208.29 212.966C208.29 212.966 207.554 218.228 209.214 218.459C210.874 218.689 210.874 212.412 210.874 212.412L212.166 189.891V181.768Z" fill="#9E616A"/>
<path d="M226.562 181.768C226.562 181.768 229.884 181.768 230.253 183.799C230.622 185.83 231.175 207.982 230.806 210.751C230.437 213.52 230.437 212.966 230.437 212.966C230.437 212.966 231.173 218.228 229.513 218.459C227.853 218.689 227.853 212.412 227.853 212.412L226.562 189.891V181.768Z" fill="#9E616A"/>
<path d="M211.612 258.932H210.136C209.7 258.932 209.268 259.018 208.864 259.185C208.461 259.352 208.095 259.597 207.787 259.906C207.478 260.214 207.234 260.58 207.067 260.983C206.9 261.387 206.814 261.819 206.814 262.255V262.255H215.857V258.009H211.612V258.932Z" fill="#2F2E41"/>
<path d="M225.823 258.932H227.3C228.181 258.932 229.026 259.282 229.649 259.906C230.272 260.529 230.622 261.374 230.622 262.255V262.255H221.578V258.009H225.823V258.932Z" fill="#2F2E41"/>
<path d="M217.887 177.523C220.537 177.523 222.686 175.374 222.686 172.723C222.686 170.072 220.537 167.923 217.887 167.923C215.237 167.923 213.089 170.072 213.089 172.723C213.089 175.374 215.237 177.523 217.887 177.523Z" fill="#9E616A"/>
<path d="M216.78 175.307C216.78 175.307 216.226 181.399 215.488 181.953C214.75 182.507 223.239 181.584 223.239 181.584C223.239 181.584 220.287 177.153 220.84 175.677C221.394 174.2 216.78 175.307 216.78 175.307Z" fill="#9E616A"/>
<path d="M227.669 181.768C227.669 181.768 217.518 177.523 210.874 181.768C210.874 181.768 209.213 186.014 210.505 188.414C211.797 190.814 213.827 196.537 211.797 200.413C209.767 204.29 211.981 202.629 211.981 202.629C211.981 202.629 209.398 212.966 209.029 221.089C208.659 229.211 210.136 258.378 211.243 258.563C212.351 258.748 215.857 259.117 216.226 258.563C216.595 258.009 219.179 219.427 219.179 219.427C219.179 219.427 220.287 258.932 221.394 258.932C222.501 258.932 225.454 258.932 226.008 258.009C226.562 257.086 231.176 221.458 229.515 214.074C227.854 206.69 226.746 202.998 226.746 202.998C226.746 202.998 228.776 201.706 228.223 200.967C227.669 200.229 224.901 192.291 226.192 190.999C227.484 189.706 227.669 181.768 227.669 181.768Z" fill="#2F2E41"/>
<path d="M220.932 177.584C225.214 177.584 228.684 174.112 228.684 169.83C228.684 165.548 225.214 162.077 220.932 162.077C216.651 162.077 213.181 165.548 213.181 169.83C213.181 174.112 216.651 177.584 220.932 177.584Z" fill="#2F2E41"/>
<path d="M225.773 165.949C224.467 165.642 223.329 164.844 222.595 163.72C221.862 162.596 221.589 161.233 221.833 159.913C221.811 159.993 221.789 160.073 221.77 160.154C221.454 161.502 221.687 162.92 222.416 164.097C223.145 165.274 224.312 166.113 225.66 166.43C227.007 166.747 228.426 166.515 229.603 165.786C230.78 165.058 231.619 163.891 231.937 162.543C231.956 162.462 231.972 162.381 231.988 162.3C231.619 163.59 230.768 164.689 229.61 165.369C228.453 166.048 227.079 166.256 225.773 165.949Z" fill="#2F2E41"/>
<path d="M226.088 166.959C228.183 166.959 229.882 165.26 229.882 163.165C229.882 161.069 228.183 159.371 226.088 159.371C223.993 159.371 222.295 161.069 222.295 163.165C222.295 165.26 223.993 166.959 226.088 166.959Z" fill="#2F2E41"/>
</g>
<defs>
<clipPath id="clip0_244_149">
<rect width="374" height="263" fill="white"/>
</clipPath>
</defs>
</svg>
