<svg width="44" height="42" viewBox="0 0 44 42" fill="none" xmlns="http://www.w3.org/2000/svg">
<path d="M39.923 21.153C40.368 22.35 40.4952 23.5469 40.2727 24.7439C40.0184 26.2643 39.192 27.5907 38.0159 28.5612C38.2066 30.5022 37.2849 32.152 36.1088 32.9931C35.3778 33.5107 34.5196 33.7695 33.6614 33.7695C33.566 33.7695 33.4707 33.7695 33.4071 33.7695C33.0575 34.1901 32.5807 34.6106 31.9768 34.9341C30.8643 35.5488 29.3069 36.034 27.7812 36.034C27.3044 36.034 26.8276 36.0017 26.3827 35.8723C26.2237 35.8723 26.0648 35.8399 25.9059 35.7752C25.7787 35.7105 25.6516 35.6782 25.5245 35.6135C25.0477 35.4517 24.6027 35.3223 24.2213 35.2253C23.7445 36.0017 21.6149 39.2043 18.5954 40.5954C17.7054 41.0159 16.9425 41.21 16.3068 41.21C15.8936 41.21 15.544 41.113 15.2262 40.9512C14.7812 40.6924 14.4951 40.2719 14.4315 39.7542C14.3044 38.8161 14.7812 37.9103 15.5758 37.3927C15.7665 37.2957 15.989 37.0692 16.2433 36.8104C16.0843 36.8104 15.9254 36.8428 15.7983 36.8428C15.099 36.8428 14.3997 36.7457 13.7323 36.5193C12.143 36.0017 10.967 34.9341 10.2359 33.349C10.1088 33.3166 9.98164 33.2519 9.8545 33.2196C8.5831 32.6696 7.50242 31.6668 6.77136 30.4051C6.73958 30.3404 6.70779 30.2757 6.67601 30.211C6.38994 30.211 6.10388 30.211 5.81782 30.211C2.28969 30.211 0.41438 29.4993 0.0647462 28.0112C-0.380243 26.2643 1.59042 24.8409 2.2579 24.388C2.76646 24.0322 3.46573 24.1292 3.84715 24.6792C4.19678 25.1968 4.10143 25.9408 3.56109 26.2967C2.73468 26.879 2.44861 27.2672 2.32147 27.4613C2.76646 27.7524 4.00607 27.9465 5.91317 27.9465C5.8496 27.5583 5.81782 27.1378 5.81782 26.7496C5.81782 24.2263 6.99386 21.9941 8.83738 20.7972C8.51953 20.7972 8.20168 20.8295 7.88384 20.8295C5.08676 20.8295 2.83003 20.2796 2.44861 18.6944C1.30436 14.1654 16.8154 9.95992 18.5636 9.47468C20.3435 9.02178 35.8863 5.04273 37.0306 9.57172C37.5392 11.6098 34.7103 13.5508 31.2775 15.1683C33.8203 15.0712 36.522 16.3329 38.4291 18.6621C38.5563 18.8238 38.6834 18.9856 38.8106 19.1473C40.1455 18.3709 40.9719 17.6916 41.1944 17.271C41.0355 17.174 40.6223 17.0122 39.8277 16.8828C39.192 16.7858 38.7788 16.2035 38.8423 15.5888C38.9377 14.9418 39.5098 14.5213 40.1137 14.586C40.8448 14.683 43.038 15.0065 43.4512 16.6564C43.8326 18.0798 42.6883 19.5355 39.923 21.153ZM17.7689 38.7837C19.676 37.9103 21.2335 36.034 22.0281 34.9018C21.5196 34.9341 21.1381 35.0635 20.6932 35.3223C20.6614 35.3547 20.6296 35.3547 20.5978 35.3547C20.3117 35.5488 19.9939 35.7429 19.7078 35.9046C18.8814 37.1663 17.3557 38.7191 16.6565 39.172L16.6247 39.2043C16.8472 39.1396 17.2286 39.0425 17.7689 38.7837ZM34.7739 10.154C33.6296 9.47467 27.8765 9.40997 19.1357 11.7068C10.3948 14.0037 5.37283 16.9152 4.70534 18.0798C5.30926 18.4356 7.24814 18.6297 10.2677 18.3709C11.412 15.7506 14.3362 13.4861 17.8643 12.9038C18.945 12.742 19.9303 12.7744 20.9474 13.0008C21.6149 12.645 22.346 12.4185 23.1406 12.2891C25.2384 11.9333 27.2726 12.5479 28.7665 13.7449C32.3264 12.2568 34.3607 10.8657 34.7739 10.154ZM13.5733 17.9504C15.5758 17.6269 17.8325 17.174 20.3753 16.527C22.2824 16.0094 24.0306 15.4918 25.588 14.9418C24.9523 14.7801 24.2849 14.7154 23.5856 14.8448C22.9499 14.9418 22.346 15.1683 21.8056 15.5241C21.3924 15.7829 20.9156 15.7829 20.5342 15.5565C19.8032 15.3624 19.0721 15.33 18.3093 15.4594C16.4022 15.7829 14.6858 16.7534 13.5733 17.9504ZM35.791 19.6002C35.791 19.5679 35.791 19.5679 35.791 19.6002C34.4242 18.3062 32.7079 17.6592 31.1822 17.7886C31.1822 17.821 31.1822 17.8533 31.214 17.8857C31.2775 18.3386 31.3093 18.8238 31.2775 19.2767C31.2457 19.9561 30.6736 20.506 30.0061 20.506C29.9743 20.506 29.9426 20.506 29.9426 20.506C29.2433 20.4737 28.703 19.859 28.7347 19.115C28.7347 18.8238 28.7347 18.565 28.703 18.2739C28.6712 18.0474 28.6076 17.8533 28.544 17.6592C28.4805 17.5622 28.4169 17.4651 28.3533 17.3357C28.3215 17.2387 28.2897 17.1093 28.258 17.0122C28.1626 16.8505 28.0673 16.6887 27.9401 16.527C24.6981 17.7563 21.6467 18.565 20.9157 18.7591C20.0892 18.9856 16.3068 19.9561 12.3337 20.4737C12.3337 20.5707 12.3337 20.6678 12.3337 20.7648C12.3655 20.8295 12.3655 20.8942 12.3973 20.9589C12.4291 21.0883 12.4291 21.1854 12.4291 21.3148C12.4926 21.5736 12.588 21.8 12.7151 22.0588C13.0648 22.6735 12.8423 23.4822 12.2066 23.8381C12.0159 23.9351 11.7934 23.9998 11.5709 23.9998C11.1259 23.9998 10.6809 23.7734 10.4584 23.3205C10.3948 23.1911 10.3313 23.094 10.2677 22.9646C9.09166 23.6763 8.36061 25.0997 8.36061 26.7496C8.36061 27.1054 8.39239 27.4936 8.48775 27.8495C11.9523 27.5907 16.6883 26.8143 22.5049 25.2938C26.1284 24.3233 29.2751 23.3205 31.8814 22.35C31.7225 22.0265 31.7225 21.6383 31.945 21.3148C32.2629 20.8619 32.835 20.7325 33.28 21.056C33.4389 21.153 33.8203 21.3471 34.2335 21.4118C34.6785 21.2177 35.1235 21.0236 35.5367 20.8295C35.5685 20.7972 35.5685 20.7648 35.6003 20.7325C35.9181 20.1502 35.8546 19.7943 35.791 19.6002ZM37.6345 22.3823C37.6027 22.3823 37.5709 22.4147 37.5392 22.4147C36.7445 22.8029 35.9181 23.1587 35.0282 23.5469C35.2189 24.291 35.2189 25.0997 34.8374 26.0055C34.17 27.5583 32.7714 27.9789 31.7225 27.9789C31.4047 27.9789 31.1504 27.9465 30.9279 27.8818C30.3876 27.7524 30.0697 27.2025 30.1651 26.6525C30.2922 26.1026 30.8325 25.7467 31.3729 25.8761C31.5 25.9085 32.6125 26.1026 33.0257 25.1644C33.1528 24.8409 33.1846 24.5498 33.1528 24.291C30.1651 25.4556 26.7005 26.5555 23.077 27.4936C18.2457 28.7553 13.5416 29.6611 9.69558 30.0493C10.0452 30.4051 10.4266 30.6639 10.8398 30.858C11.0305 30.9551 11.253 31.0198 11.4437 31.0521C11.6662 31.0845 11.8887 31.1168 12.1112 31.1168C12.6834 31.1168 13.2555 30.9551 13.764 30.6639C14.368 30.3081 15.1626 30.5345 15.5122 31.1492C15.8618 31.7638 15.6394 32.5726 15.0354 32.9284C14.5587 33.2196 14.0501 33.4137 13.5098 33.5431C13.7958 33.7695 14.1455 33.9636 14.4951 34.0607C15.8936 34.5136 17.8325 34.1254 19.2946 33.0902C19.39 33.0255 19.5171 32.9608 19.6443 32.9284C20.28 32.6049 20.9157 32.4108 21.5513 32.3138C21.1381 31.6668 21.011 31.2139 20.9792 31.1492C20.7567 30.4698 21.1381 29.7258 21.8374 29.5317C22.5049 29.3376 23.2042 29.6934 23.4267 30.3728C23.4584 30.4698 24.0306 32.055 26.4144 33.1872C26.5098 33.2196 26.5734 33.2519 26.6687 33.2843C27.9083 33.7048 29.6247 33.2196 30.6418 32.702C30.5465 32.6049 30.4193 32.5402 30.324 32.4432C29.8154 31.9579 29.7836 31.1168 30.2604 30.5992C30.7372 30.0816 31.5636 30.0493 32.0722 30.5345C32.835 31.2462 33.9157 31.408 34.6149 30.8904C34.7421 30.7933 35.8546 29.9522 35.346 28.3024C35.1235 27.623 35.5049 26.879 36.1724 26.6525C36.2042 26.6525 36.2042 26.6525 36.236 26.6525C37.0306 26.1026 37.5709 25.2615 37.7299 24.3233C37.8888 23.6763 37.8252 23.0293 37.6345 22.3823ZM26.5416 30.9551C26.1284 30.9551 25.7152 30.8904 25.302 30.7286C24.7934 30.5345 24.5391 29.9522 24.7298 29.4023C24.9206 28.8847 25.4927 28.6259 26.0012 28.82C26.5098 29.0141 27.2091 28.8847 27.5905 28.4965C27.9719 28.1083 28.6076 28.1083 28.989 28.4965C29.3704 28.8847 29.3704 29.5317 28.989 29.9199C28.3533 30.5992 27.4633 30.9551 26.5416 30.9551ZM24.6345 21.5736C24.5391 21.5736 24.1577 21.6383 23.9352 22.0265C24.0941 22.3176 24.2213 22.6735 24.3166 23.0617C24.4438 23.6116 24.0941 24.1616 23.5538 24.2586C23.4902 24.2586 23.4267 24.291 23.3631 24.291C22.9181 24.291 22.4731 23.9675 22.3778 23.4822C22.187 22.5117 21.2017 22.2206 21.2017 22.2206C20.6614 22.0912 20.3435 21.5412 20.4707 20.9913C20.5978 20.4413 21.1381 20.1178 21.6785 20.2472C21.9328 20.3119 22.2188 20.409 22.5367 20.6031C23.236 19.762 24.2213 19.5679 24.6345 19.5679C25.1748 19.5679 25.6198 20.0208 25.6198 20.5707C25.588 21.0883 25.1748 21.5412 24.6345 21.5736ZM17.7372 23.3852C17.4193 23.6116 17.1968 23.9028 17.0379 24.2586C17.1015 24.3233 17.165 24.388 17.2286 24.4204C17.61 24.8409 17.5782 25.4556 17.1968 25.8438C17.0061 26.0379 16.7518 26.1349 16.5293 26.1349C16.2751 26.1349 15.989 26.0379 15.7983 25.8114C15.6394 25.6497 15.4169 25.5526 15.1944 25.5203C14.9401 25.4879 14.6222 25.5526 14.3362 25.6497C13.8276 25.8761 13.2555 25.6173 13.033 25.0997C12.8105 24.5821 13.0648 23.9998 13.5733 23.7734C14.1137 23.5469 14.6858 23.4499 15.2262 23.4822C15.5122 22.7705 16.0208 22.1235 16.6565 21.6706C17.1015 21.3471 17.7372 21.4765 18.055 21.9294C18.3093 22.447 18.1821 23.094 17.7372 23.3852ZM25.143 5.46328C23.1088 6.46613 20.3117 7.46897 17.2604 8.27772C14.2408 9.08647 11.3166 9.57172 9.05988 9.70112C8.71024 9.70112 8.32882 9.70112 7.97919 9.70112C6.2628 9.70112 4.60999 9.40997 4.26036 8.05128C3.84715 6.40143 5.88138 5.17213 7.69312 4.26633C9.72736 3.26348 12.5244 2.26063 15.5758 1.45188C18.5954 0.64313 21.5196 0.15788 23.7763 0.0284802C25.8105 -0.0685698 28.1626 -0.00386984 28.5758 1.64598C29.0208 3.32818 26.9866 4.55748 25.143 5.46328ZM16.1479 3.71638C11.2848 5.01038 8.20168 6.46613 6.99386 7.33957C8.45596 7.50132 11.8569 7.27488 16.72 6.01323C21.5831 4.75158 24.6345 3.26348 25.8423 2.39003C24.3802 2.22828 20.9792 2.45473 16.1479 3.71638Z" fill="#355C7D"/>
</svg>
